<svg width="32" height="31" viewBox="0 0 32 31" fill="none" xmlns="http://www.w3.org/2000/svg">
<path d="M31.1191 26.0391L20.24 15.5L31.1191 4.96089C32.2936 3.82305 32.2936 1.99121 31.1191 0.853378C29.9446 -0.284459 28.0536 -0.284459 26.8791 0.853378L16 11.3925L5.12092 0.853378C3.94638 -0.284459 2.05545 -0.284459 0.880906 0.853378C-0.293635 1.99121 -0.293635 3.82305 0.880906 4.96089L11.76 15.5L0.880906 26.0391C-0.293635 27.177 -0.293635 29.0088 0.880906 30.1466C2.05545 31.2845 3.94638 31.2845 5.12092 30.1466L16 19.6075L26.8791 30.1466C28.0536 31.2845 29.9446 31.2845 31.1191 30.1466C32.2853 29.0088 32.2853 27.1689 31.1191 26.0391Z" fill="#5B5656"/>
</svg>
